<!--?xml version="1.0" encoding="utf-8"?-->
<!-- Generator: Adobe Illustrator 15.1.0, SVG Export Plug-In . SVG Version: 6.00 Build 0)  -->

<svg version="1.1" id="_x32_" xmlns="http://www.w3.org/2000/svg" xmlns:xlink="http://www.w3.org/1999/xlink" x="0px" y="0px" width="512px" height="512px" viewBox="0 0 512 512" style="width: 256px; height: 256px; opacity: 1;" xml:space="preserve">
<style type="text/css">

	.st0{fill:#4B4B4B;}

</style>
<g>
	<path class="st0" d="M465.906,200.813v-11.359H296.079c-3.063,0-37.813,0-40.984,0c-4.156,0.047-9.531-0.609-12.359-1.734
		c-0.703-0.266-1.234-0.531-1.563-0.734l-0.391-0.281l-0.469,0.5l0.547-0.406l-0.078-0.094l-0.469,0.5l0.547-0.406l-1.484,1.094
		h1.906l-0.422-1.094l-1.484,1.094h1.906c-0.016,0-0.016-0.469,0.453-1.609c0.453-1.141,1.375-2.844,2.922-5l-9.219-6.625
		l7.313,8.688l54.938-46.266c11.938-10.063,18.141-24.531,18.125-39c0.016-11.547-3.938-23.25-11.953-32.75
		c-10.063-11.953-24.547-18.156-39.016-18.141c-11.547,0-23.25,3.938-32.766,11.953l-110.641,93.188l7.313,8.688l-7.125-8.844
		C98.329,171,84.86,184.516,65.829,202.094c-17.406,16.094-33.703,31.953-45.906,51.031C7.688,272.156-0.062,294.625,0,321.844
		c0,78.969,64,142.969,142.953,142.969h166.078c25.438,0,46.078-20.594,46.094-46.063c0-13.813-6.203-26.125-15.656-34.438
		l-7.516,8.5v11.375h5.422c25.438,0,46.078-20.625,46.078-46.063c0.016-14.344-6.719-27.063-16.797-35.406l-7.25,8.75l2.297,11.125
		c5.391-1.094,10.344-3.25,14.469-6.344c6.234-4.625,10.297-11.063,12.609-17.75c2.344-6.75,3.156-13.844,3.172-21.031
		c-0.016-4.469-0.953-8.813-2.578-13.031c-2.469-6.281-6.5-12.375-12.344-17.25c-5.797-4.813-13.734-8.313-22.703-8.281
		c-3,0-5.922,1.219-8.031,3.344c-2.125,2.125-3.328,5.031-3.328,8.031c0,2.969,1.203,5.906,3.328,8.031
		c2.109,2.125,5.031,3.313,8.031,3.313h111.578c25.469,0,46.078-20.625,46.094-46.078c-0.031-25.453-20.641-46.078-46.094-46.094
		V200.813v11.359c12.891,0.016,23.375,10.469,23.375,23.375c-0.031,12.891-10.469,23.359-23.375,23.359H354.329
		c-3,0-5.922,1.219-8.031,3.344c-2.125,2.125-3.328,5.031-3.328,8.031c0,2.969,1.203,5.906,3.328,8.031
		c2.109,2.125,5.031,3.313,8.031,3.313c2.188,0.031,3.969,0.5,5.719,1.406c2.594,1.344,5.047,3.813,6.734,6.719
		c1.719,2.844,2.5,6.094,2.453,7.719c0.031,7.219-1.266,13.094-3.234,16.594c-1,1.75-2.063,3-3.391,3.969
		c-1.328,1-2.969,1.781-5.484,2.313c-4.297,0.906-7.672,4.125-8.734,8.375s0.391,8.719,3.781,11.5
		c5.297,4.438,8.563,10.719,8.578,17.906c-0.031,12.875-10.484,23.313-23.375,23.344h-5.422c-4.734,0-8.953,2.906-10.625,7.344
		c-1.672,4.406-0.453,9.375,3.094,12.531c4.953,4.406,7.984,10.469,7.984,17.406c-0.016,12.875-10.469,23.313-23.375,23.344H142.954
		c-33.234,0-63.234-13.438-85.016-35.219s-35.219-51.781-35.219-85.031c0.047-23.031,6.109-40.344,16.344-56.469
		c10.25-16.109,25.047-30.813,42.172-46.594c19.469-17.984,32.234-30.828,54.656-48.938l0.172-0.141l110.641-93.172
		c5.328-4.469,11.703-6.609,18.141-6.625c8.094,0.016,16.016,3.391,21.641,10.063c4.453,5.313,6.609,11.672,6.609,18.109
		c-0.016,8.078-3.391,16.016-10.047,21.641l-54.922,46.25c-0.734,0.609-1.359,1.281-1.922,2.047
		c-2.359,3.297-4.203,6.469-5.531,9.734c-1.313,3.266-2.109,6.656-2.109,10.141c-0.094,5.391,2.234,10.75,5.516,14.188
		c2.438,2.641,5.188,4.406,7.906,5.719c4.078,1.953,8.172,2.938,12.094,3.563c3.922,0.609,7.688,0.813,11.016,0.813
		c3.172,0,37.922,0,40.984,0h169.828V200.813z" style="fill: rgb(75, 75, 75);"></path>
</g>
</svg>
