<?xml version="1.0" encoding="iso-8859-1"?>
<!-- Generator: Adobe Illustrator 19.0.0, SVG Export Plug-In . SVG Version: 6.00 Build 0)  -->
<svg version="1.1" id="Capa_1" xmlns="http://www.w3.org/2000/svg" xmlns:xlink="http://www.w3.org/1999/xlink" x="0px" y="0px"
	 viewBox="0 0 502.624 502.624" style="enable-background:new 0 0 502.624 502.624;" xml:space="preserve">
<g>
	<g>
		<g>
			<path d="M320.968,70.624c0-26.51-21.49-48-48-48c-26.51,0-48,21.49-48,48v160c-44.161,0.053-79.947,35.839-80,80v85.616l64,80
				v26.384h32v-37.616l-64-80v-74.384c0-26.51,21.49-48,48-48v112h32v-304c0-8.837,7.163-16,16-16s16,7.163,16,16v140.224
				l52.336,14.272l8.4-30.88l-28.8-7.84L320.968,70.624z"/>
			<rect x="375.804" y="206.369" transform="matrix(-0.9648 -0.2629 0.2629 -0.9648 711.354 539.9305)" width="32" height="32"/>
			<polygon points="442.312,219.504 433.912,250.368 464.968,258.848 464.968,401.296 416.968,465.296 416.968,502.624 
				448.968,502.624 448.968,475.952 496.968,411.952 496.968,234.4 			"/>
			<polygon points="112.968,61.248 112.968,166.624 144.968,166.624 144.968,61.248 165.656,81.936 188.28,59.312 128.968,0 
				69.656,59.312 92.28,81.936 			"/>
			<rect x="112.968" y="198.624" width="32" height="32"/>
			<polygon points="80.968,288 80.968,182.624 48.968,182.624 48.968,288 28.28,267.312 5.656,289.936 64.968,349.248 
				124.28,289.936 101.656,267.312 			"/>
			<rect x="48.968" y="118.624" width="32" height="32"/>
		</g>
	</g>
</g>
<g>
</g>
<g>
</g>
<g>
</g>
<g>
</g>
<g>
</g>
<g>
</g>
<g>
</g>
<g>
</g>
<g>
</g>
<g>
</g>
<g>
</g>
<g>
</g>
<g>
</g>
<g>
</g>
<g>
</g>
</svg>
